# xmcd
#
# Track frame offsets: 
#        150
#        18125
#        34240
#        49767
#        62780
#        78105
#        98245
#        116827
#        139645
#        157412
#        173770
#        187772
#        212067
#
# Disc length: 3058 seconds
#
# Revision: 1
# Processed by: cddbd v1.5.2PL0 Copyright (c) Steve Scherf et al.
# Submitted via: ExactAudioCopy v1.1
#
DISCID=aa0bf00d
DTITLE=Eric Clapton - From The Cradle To The Filmore West - Disc 1
DYEAR=1995
DGENRE=Blues
TTITLE0=Motherless Child (live)
TTITLE1=Malted Milk (live)
TTITLE2=How Long Blues (live)
TTITLE3=Kidman Blues (live)
TTITLE4=County Jail (live)
TTITLE5=44 (live)
TTITLE6=The Blues All Day Long (live)
TTITLE7=Standin' Round Crying (live)
TTITLE8=Hoochie Coochie Man (live)
TTITLE9=It Hurts Me Too (live)
TTITLE10=Blues Before Sunrise (live)
TTITLE11=Third Degree (live)
TTITLE12=Reconsider Baby (live)
EXTD=
EXTT0=
EXTT1=
EXTT2=
EXTT3=
EXTT4=
EXTT5=
EXTT6=
EXTT7=
EXTT8=
EXTT9=
EXTT10=
EXTT11=
EXTT12=
PLAYORDER=
